<?xml version="1.0" standalone="no"?>
<!DOCTYPE svg PUBLIC "-//W3C//DTD SVG 20010904//EN"
 "http://www.w3.org/TR/2001/REC-SVG-20010904/DTD/svg10.dtd">
<svg version="1.0" xmlns="http://www.w3.org/2000/svg"
 width="793.000000pt" height="764.000000pt" viewBox="0 0 793.000000 764.000000"
 preserveAspectRatio="xMidYMid meet">
<metadata>
Created by potrace 1.15, written by Peter Selinger 2001-2017
</metadata>
<g transform="translate(0.000000,764.000000) scale(0.100000,-0.100000)"
fill="#000000" stroke="none">
<path d="M3894 7288 c-97 -194 -570 -1135 -1051 -2092 -481 -956 -871 -1741
-866 -1746 4 -4 715 -21 1578 -39 864 -17 1620 -34 1681 -37 l111 -6 403 -689
c221 -380 400 -692 398 -695 -3 -2 -297 -1 -654 4 -357 5 -652 6 -655 3 -7 -6
19 -845 27 -868 3 -10 261 -13 1250 -13 1188 0 1246 1 1242 18 -3 9 -355 736
-784 1615 l-779 1597 -1222 2 -1222 3 362 707 c199 390 364 708 367 708 3 0
88 -198 190 -440 l184 -440 458 0 c252 0 458 2 458 4 0 15 -1281 2751 -1289
2754 -6 2 -90 -156 -187 -350z"/>
<path d="M1728 2933 c-21 -25 -1112 -1794 -1116 -1810 -3 -11 242 -13 1347
-13 l1351 0 0 418 0 419 -427 6 c-236 4 -533 7 -661 7 -129 0 -232 4 -230 8 2
5 142 223 311 485 169 263 305 482 302 487 -4 6 -162 10 -434 10 -395 0 -429
-1 -443 -17z"/>
</g>
</svg>
